<svg width="27" height="27" viewBox="0 0 27 27" fill="none" xmlns="http://www.w3.org/2000/svg">
<path d="M13.3333 0C20.6973 0 26.6667 5.96933 26.6667 13.3333C26.6667 20.6973 20.6973 26.6667 13.3333 26.6667C11.1763 26.6695 9.05105 26.1469 7.14135 25.144L1.42135 26.6333C1.23022 26.6831 1.0294 26.6821 0.838799 26.6303C0.648195 26.5786 0.474421 26.4779 0.334698 26.3384C0.194976 26.1988 0.0941574 26.0251 0.0422338 25.8345C-0.00968972 25.644 -0.0109152 25.4432 0.0386788 25.252L1.52668 19.5333C0.521129 17.6216 -0.00290626 15.4934 1.21229e-05 13.3333C1.21229e-05 5.96933 5.96935 0 13.3333 0ZM15.0027 14.6667H9.00001L8.86401 14.676C8.62466 14.7089 8.40533 14.8274 8.24656 15.0095C8.08779 15.1916 8.00032 15.4251 8.00032 15.6667C8.00032 15.9083 8.08779 16.1417 8.24656 16.3238C8.40533 16.5059 8.62466 16.6244 8.86401 16.6573L9.00001 16.6667H15.0027L15.1373 16.6573C15.3767 16.6244 15.596 16.5059 15.7548 16.3238C15.9136 16.1417 16.001 15.9083 16.001 15.6667C16.001 15.4251 15.9136 15.1916 15.7548 15.0095C15.596 14.8274 15.3767 14.7089 15.1373 14.676L15.0027 14.6667ZM17.6667 10H9.00001L8.86401 10.0093C8.62466 10.0423 8.40533 10.1607 8.24656 10.3428C8.08779 10.525 8.00032 10.7584 8.00032 11C8.00032 11.2416 8.08779 11.475 8.24656 11.6572C8.40533 11.8393 8.62466 11.9577 8.86401 11.9907L9.00001 12H17.6667L17.8027 11.9907C18.042 11.9577 18.2614 11.8393 18.4201 11.6572C18.5789 11.475 18.6664 11.2416 18.6664 11C18.6664 10.7584 18.5789 10.525 18.4201 10.3428C18.2614 10.1607 18.042 10.0423 17.8027 10.0093L17.6667 10Z" fill="#4E4E4E"/>
</svg>
