<svg width="55" height="46" viewBox="0 0 55 46" fill="none" xmlns="http://www.w3.org/2000/svg">
<path d="M47.8762 34.13C48.1611 33.8475 48.4996 33.7063 48.8918 33.7063C49.284 33.7063 49.6225 33.8475 49.9074 34.13L54.5727 38.7727C54.8576 39.0551 55 39.3975 55 39.7999C55 40.2023 54.8576 40.5447 54.5727 40.8271C54.2878 41.1096 53.9425 41.2508 53.5366 41.2508C53.1308 41.2508 52.7854 41.1096 52.5005 40.8271L47.8177 36.1989C47.5328 35.9165 47.4001 35.5721 47.4196 35.1659C47.4392 34.7596 47.5933 34.4143 47.8762 34.13ZM49.9016 0.426552C50.1864 0.708985 50.3289 1.05332 50.3289 1.45956C50.3289 1.8658 50.1864 2.21111 49.9016 2.49547L45.2333 7.12081C44.9485 7.40324 44.6099 7.54446 44.2178 7.54446C43.8256 7.54446 43.487 7.40324 43.2022 7.12081C42.9173 6.83837 42.7748 6.49404 42.7748 6.0878C42.7748 5.68156 42.9173 5.33625 43.2022 5.05188L47.8294 0.426552C48.1143 0.142184 48.4596 0 48.8655 0C49.2713 0 49.6167 0.142184 49.9016 0.426552ZM5.09845 0.481684C5.38332 0.199251 5.73161 0.0580342 6.14331 0.0580342C6.55305 0.0580342 6.90134 0.199251 7.18816 0.481684L11.8534 5.06639C12.1383 5.35076 12.2808 5.69413 12.2808 6.0965C12.2808 6.49694 12.1383 6.83934 11.8534 7.12371C11.5686 7.40614 11.2203 7.54736 10.8086 7.54736C10.3988 7.54736 10.0515 7.40614 9.76666 7.12371L5.09845 2.49547C4.81357 2.21304 4.67114 1.87741 4.67114 1.48858C4.67114 1.09975 4.81357 0.764118 5.09845 0.481684ZM7.1267 34.188C7.41158 34.4704 7.55401 34.8061 7.55401 35.1949C7.55401 35.5837 7.41158 35.9194 7.1267 36.2018L2.45849 40.8271C2.17362 41.1096 1.83509 41.2508 1.4429 41.2508C1.05071 41.2508 0.712182 41.1096 0.427309 40.8271C0.142436 40.5447 0 40.1994 0 39.7912C0 39.383 0.142436 39.0377 0.427309 38.7553L5.05162 34.13C5.33844 33.8475 5.68478 33.715 6.09062 33.7324C6.49452 33.7518 6.83988 33.9056 7.1267 34.188ZM27.5 37.9428L14.2856 45.8065C13.9734 45.9593 13.6846 46.0212 13.4193 45.9922C13.152 45.9612 12.8925 45.8703 12.6408 45.7194C12.389 45.5647 12.1978 45.3461 12.0671 45.0636C11.9364 44.7773 11.9247 44.4688 12.032 44.138L15.5353 29.4234L3.87798 19.4299C3.61457 19.2171 3.45067 18.9627 3.38628 18.6667C3.31994 18.3727 3.34726 18.0893 3.46823 17.8165C3.5892 17.5438 3.75018 17.3223 3.95115 17.152C4.15212 16.9818 4.42529 16.8667 4.77065 16.8067L20.0923 15.5184L26.0864 1.54371C26.219 1.22452 26.4103 0.994321 26.66 0.853104C26.9098 0.711887 27.1898 0.642246 27.5 0.64418C27.8102 0.646115 28.0912 0.716723 28.3429 0.856005C28.5946 0.995288 28.7849 1.22549 28.9136 1.54661L34.9633 15.5213L50.285 16.8096C50.6303 16.8677 50.9035 16.9837 51.1045 17.1578C51.3074 17.3261 51.4693 17.5467 51.5903 17.8194C51.7113 18.0922 51.7386 18.3756 51.6723 18.6696C51.6059 18.9656 51.441 19.22 51.1776 19.4328L39.5232 29.4263L43.0236 44.196C43.1329 44.5268 43.1212 44.8257 42.9885 45.0927C42.8558 45.3596 42.6646 45.5695 42.4149 45.7223C42.1632 45.8732 41.9046 45.9632 41.6393 45.9922C41.3719 46.0231 41.0822 45.9622 40.77 45.8094L27.5 37.9428Z" fill="#7AC943"/>
</svg>
